<svg width="48" height="48" viewBox="0 0 48 48" fill="none" xmlns="http://www.w3.org/2000/svg">
<path d="M39.0312 37H31.9609L22.9961 24.6172C22.332 24.6432 21.7917 24.6562 21.375 24.6562C21.2057 24.6562 21.0234 24.6562 20.8281 24.6562C20.6328 24.6432 20.431 24.6302 20.2227 24.6172V32.3125C20.2227 33.9792 20.4049 35.0143 20.7695 35.418C21.2643 35.9909 22.0065 36.2773 22.9961 36.2773H24.0312V37H12.6836V36.2773H13.6797C14.7995 36.2773 15.6003 35.9128 16.082 35.1836C16.3555 34.7799 16.4922 33.8229 16.4922 32.3125V15.2031C16.4922 13.5365 16.3099 12.5013 15.9453 12.0977C15.4375 11.5247 14.6823 11.2383 13.6797 11.2383H12.6836V10.5156H22.332C25.1445 10.5156 27.2148 10.724 28.543 11.1406C29.8841 11.5443 31.0169 12.2995 31.9414 13.4062C32.8789 14.5 33.3477 15.8086 33.3477 17.332C33.3477 18.9596 32.8138 20.3724 31.7461 21.5703C30.6914 22.7682 29.0508 23.6146 26.8242 24.1094L32.293 31.707C33.543 33.4518 34.6172 34.6107 35.5156 35.1836C36.4141 35.7565 37.5859 36.1211 39.0312 36.2773V37ZM20.2227 23.3867C20.4701 23.3867 20.6849 23.3932 20.8672 23.4062C21.0495 23.4062 21.1992 23.4062 21.3164 23.4062C23.8424 23.4062 25.7435 22.8594 27.0195 21.7656C28.3086 20.6719 28.9531 19.2786 28.9531 17.5859C28.9531 15.9323 28.4323 14.5911 27.3906 13.5625C26.362 12.5208 24.9948 12 23.2891 12C22.5339 12 21.5117 12.1237 20.2227 12.3711V23.3867Z" fill="#333333"/>
<rect x="1.5" y="1.5" width="45" height="45" stroke="#333333" stroke-width="3"/>
</svg>
