<?xml version="1.0" encoding="UTF-8"?>
<!DOCTYPE svg PUBLIC "-//W3C//DTD SVG 1.1//EN" "http://www.w3.org/Graphics/SVG/1.1/DTD/svg11.dtd">
<svg xmlns="http://www.w3.org/2000/svg" version="1.1" width="100px" height="100px" style="shape-rendering:geometricPrecision; text-rendering:geometricPrecision; image-rendering:optimizeQuality; fill-rule:evenodd; clip-rule:evenodd" xmlns:xlink="http://www.w3.org/1999/xlink">
<g><path style="opacity:0.937" fill="#c9d2d7" d="M 12.5,11.5 C 37.4079,11.1722 62.2413,11.5055 87,12.5C 87.5,37.4978 87.6666,62.4978 87.5,87.5C 62.1667,87.5 36.8333,87.5 11.5,87.5C 11.1766,62.0922 11.5099,36.7589 12.5,11.5 Z"/></g>
<g><path style="opacity:1" fill="#94a7b0" d="M 17.5,16.5 C 22.5867,16.2845 23.5867,18.1178 20.5,22C 16.5369,22.1177 15.5369,20.2843 17.5,16.5 Z"/></g>
<g><path style="opacity:1" fill="#94a7b1" d="M 25.5,16.5 C 30.1585,16.0146 31.4919,17.848 29.5,22C 25.1322,22.4393 23.7988,20.606 25.5,16.5 Z"/></g>
<g><path style="opacity:1" fill="#263238" d="M 16.5,26.5 C 38.5,26.5 60.5,26.5 82.5,26.5C 82.5,45.1667 82.5,63.8333 82.5,82.5C 60.5,82.5 38.5,82.5 16.5,82.5C 16.5,63.8333 16.5,45.1667 16.5,26.5 Z"/></g>
<g><path style="opacity:1" fill="#1aedee" d="M 30.5,45.5 C 34.6056,47.3876 38.6056,49.5542 42.5,52C 43.7596,53.8138 43.7596,55.6471 42.5,57.5C 38.8333,59.5 35.1667,61.5 31.5,63.5C 30.1667,61.8333 30.1667,60.1667 31.5,58.5C 33.3359,57.081 35.3359,55.9143 37.5,55C 35.3333,53.5 33.1667,52 31,50.5C 30.5065,48.8659 30.3398,47.1992 30.5,45.5 Z"/></g>
<g><path style="opacity:1" fill="#18fffe" d="M 47.5,60.5 C 54.1667,60.5 60.8333,60.5 67.5,60.5C 67.5,61.5 67.5,62.5 67.5,63.5C 60.8333,63.5 54.1667,63.5 47.5,63.5C 47.5,62.5 47.5,61.5 47.5,60.5 Z"/></g>
<g><path style="opacity:1" fill="#1dacae" d="M 47.5,60.5 C 54.3134,59.5088 61.3134,59.1755 68.5,59.5C 68.5,61.1667 68.5,62.8333 68.5,64.5C 61.3134,64.8245 54.3134,64.4912 47.5,63.5C 54.1667,63.5 60.8333,63.5 67.5,63.5C 67.5,62.5 67.5,61.5 67.5,60.5C 60.8333,60.5 54.1667,60.5 47.5,60.5 Z"/></g>
</svg>
