<?xml version="1.0" encoding="UTF-8"?>
<!DOCTYPE svg PUBLIC "-//W3C//DTD SVG 1.1//EN" "http://www.w3.org/Graphics/SVG/1.1/DTD/svg11.dtd">
<svg xmlns="http://www.w3.org/2000/svg" version="1.1" width="100px" height="100px" style="shape-rendering:geometricPrecision; text-rendering:geometricPrecision; image-rendering:optimizeQuality; fill-rule:evenodd; clip-rule:evenodd" xmlns:xlink="http://www.w3.org/1999/xlink">
<g><path style="opacity:0.912" fill="#9a4059" d="M 40.5,4.5 C 56.1667,4.5 71.8333,4.5 87.5,4.5C 84.7312,15.6464 80.8979,26.313 76,36.5C 75.228,36.3552 74.5613,36.0219 74,35.5C 70.8178,29.1356 67.6511,22.8022 64.5,16.5C 60.9118,22.6754 57.5785,29.0087 54.5,35.5C 53.635,36.5827 52.635,36.7494 51.5,36C 47.6898,25.547 44.0231,15.047 40.5,4.5 Z"/></g>
<g><path style="opacity:0.909" fill="#99415a" d="M 18.5,40.5 C 26.9298,43.0221 28.5965,47.8554 23.5,55C 13.5731,58.0714 9.73979,54.5714 12,44.5C 13.7918,42.372 15.9584,41.0387 18.5,40.5 Z"/></g>
<g><path style="opacity:0.913" fill="#98415a" d="M 45.5,41.5 C 51.9789,39.7835 55.9789,42.1169 57.5,48.5C 54.8244,56.5921 49.9911,58.2588 43,53.5C 40.5226,48.6692 41.356,44.6692 45.5,41.5 Z"/></g>
<g><path style="opacity:0.901" fill="#99415a" d="M 78.5,40.5 C 83.9313,40.7648 86.9313,43.5981 87.5,49C 85.6145,56.1079 81.2811,58.1079 74.5,55C 69.8308,48.5134 71.1641,43.68 78.5,40.5 Z"/></g>
<g><path style="opacity:0.948" fill="#99415a" d="M 61.5,51.5 C 63.604,51.2011 65.604,51.5344 67.5,52.5C 71.4317,60.3634 77.4317,62.6968 85.5,59.5C 88.4593,65.1991 87.4593,70.3658 82.5,75C 73.9789,77.7565 65.3122,80.0899 56.5,82C 47.1663,86.8344 37.4996,90.8344 27.5,94C 20.7095,95.0946 15.2095,92.928 11,87.5C 8.1811,78.1026 9.34776,69.2693 14.5,61C 15.4491,60.3828 16.2825,60.5494 17,61.5C 17.914,76.037 24.414,79.537 36.5,72C 39.8333,68.6667 43.1667,65.3333 46.5,62C 54.0085,61.9246 59.0085,58.4246 61.5,51.5 Z"/></g>
</svg>
