<?xml version="1.0" encoding="iso-8859-1"?>
<!-- Generator: Adobe Illustrator 25.4.1, SVG Export Plug-In . SVG Version: 6.00 Build 0)  -->
<svg version="1.1" id="Layer_1" xmlns="http://www.w3.org/2000/svg" xmlns:xlink="http://www.w3.org/1999/xlink" x="0px" y="0px"
	 viewBox="0 0 24 24" style="enable-background:new 0 0 24 24;" xml:space="preserve">
<path style="fill:none;stroke:#000000;stroke-width:2;stroke-linecap:round;stroke-linejoin:round;stroke-miterlimit:10;" d="
	M22,5.5V21L6,22l-2.664-3.996C3.117,17.675,3,17.289,3,16.894V3l3.5,3L22,5.5z"/>
<path style="fill:none;stroke:#000000;stroke-linecap:round;stroke-linejoin:round;stroke-miterlimit:10;" d="M3,2.5l12.506-0.501
	c0.9-0.067,1.797,0.173,2.543,0.68l4.289,2.447"/>
<path d="M16.891,15.528c0-2.001,0-3.928,0-5.87c-0.32-0.037-0.626-0.081-0.934-0.104c-0.168-0.012-0.209-0.088-0.19-0.236
	c0.041-0.317,0.29-0.605,0.624-0.63c1.017-0.076,2.036-0.127,3.05-0.187c0.147,0.5,0.005,0.739-0.483,0.84
	c-0.531,0.11-0.531,0.11-0.531,0.645c0,2.874-0.002,5.748,0.005,8.622c0.001,0.2-0.054,0.322-0.244,0.382
	c-0.341,0.108-0.675,0.248-1.023,0.321c-0.557,0.116-1.047-0.037-1.381-0.515c-0.461-0.659-0.91-1.326-1.348-2
	c-1.018-1.567-2.027-3.141-3.039-4.712c-0.022-0.034-0.047-0.065-0.105-0.142c-0.012,0.107-0.025,0.171-0.025,0.235
	c-0.001,1.956,0.001,3.913-0.005,5.869c-0.001,0.173,0.055,0.243,0.222,0.275c0.375,0.072,0.747,0.162,1.117,0.244
	c-0.045,0.406-0.27,0.658-0.686,0.727c-0.305,0.05-0.617,0.057-0.927,0.075c-0.75,0.045-1.502,0.079-2.251,0.132
	c-0.218,0.016-0.262-0.075-0.225-0.253c0.046-0.222,0.159-0.383,0.399-0.441c0.236-0.057,0.469-0.131,0.703-0.197
	c0-2.814,0-5.613,0-8.432c-0.356-0.031-0.704-0.062-1.049-0.092C8.428,9.599,8.73,9.152,9.24,9.111
	c0.92-0.074,1.845-0.103,2.762-0.204c0.392-0.044,0.576,0.1,0.772,0.4c1.298,1.987,2.613,3.963,3.923,5.942
	C16.745,15.322,16.797,15.393,16.891,15.528z"/>
<polygon points="7,6 7,22 6,22 3,17.5 3,3 "/>
</svg>