<?xml version="1.0" encoding="UTF-8"?>
<!DOCTYPE svg PUBLIC "-//W3C//DTD SVG 1.1//EN" "http://www.w3.org/Graphics/SVG/1.1/DTD/svg11.dtd">
<svg xmlns="http://www.w3.org/2000/svg" version="1.1" width="100px" height="100px" style="shape-rendering:geometricPrecision; text-rendering:geometricPrecision; image-rendering:optimizeQuality; fill-rule:evenodd; clip-rule:evenodd" xmlns:xlink="http://www.w3.org/1999/xlink">
<g><path style="opacity:0.851" fill="#000000" d="M 28.5,11.5 C 35.5,11.5 42.5,11.5 49.5,11.5C 49.6663,18.8409 49.4997,26.1742 49,33.5C 46.6667,31.1667 44.3333,28.8333 42,26.5C 34.2912,34.5437 26.2912,42.2104 18,49.5C 14.7913,47.9761 12.7913,45.6428 12,42.5C 19.6812,34.9857 27.1812,27.319 34.5,19.5C 32.0663,17.079 30.0663,14.4123 28.5,11.5 Z"/></g>
<g><path style="opacity:0.949" fill="#000000" d="M 74.5,11.5 C 78.8333,11.5 83.1667,11.5 87.5,11.5C 87.5,36.8333 87.5,62.1667 87.5,87.5C 83.1667,87.5 78.8333,87.5 74.5,87.5C 74.5,62.1667 74.5,36.8333 74.5,11.5 Z"/></g>
<g><path style="opacity:0.933" fill="#000000" d="M 53.5,44.5 C 57.8333,44.5 62.1667,44.5 66.5,44.5C 66.5,58.8333 66.5,73.1667 66.5,87.5C 62.1667,87.5 57.8333,87.5 53.5,87.5C 53.5,73.1667 53.5,58.8333 53.5,44.5 Z"/></g>
<g><path style="opacity:0.924" fill="#000000" d="M 32.5,61.5 C 36.8333,61.5 41.1667,61.5 45.5,61.5C 45.5,70.1667 45.5,78.8333 45.5,87.5C 41.1667,87.5 36.8333,87.5 32.5,87.5C 32.5,78.8333 32.5,70.1667 32.5,61.5 Z"/></g>
<g><path style="opacity:0.894" fill="#000000" d="M 11.5,69.5 C 15.8333,69.5 20.1667,69.5 24.5,69.5C 24.5,75.5 24.5,81.5 24.5,87.5C 20.1667,87.5 15.8333,87.5 11.5,87.5C 11.5,81.5 11.5,75.5 11.5,69.5 Z"/></g>
</svg>
