<?xml version="1.0" encoding="iso-8859-1"?>
<!-- Generator: Adobe Illustrator 25.2.3, SVG Export Plug-In . SVG Version: 6.00 Build 0)  -->
<svg version="1.1" id="Layer_1" xmlns="http://www.w3.org/2000/svg" xmlns:xlink="http://www.w3.org/1999/xlink" x="0px" y="0px"
	 viewBox="0 0 48 48" style="enable-background:new 0 0 48 48;" xml:space="preserve">
<polygon style="fill:#ECEFF1;" points="24,4 7,14 7,34 24,44 41,34 41,14 "/>
<g>
	<polygon style="fill:#0277BD;" points="23.5,24.5 23.5,33.5 15,29 15,19.5 	"/>
	<polygon style="fill:#0277BD;" points="24.5,24.5 24.5,33.5 33,29 33,19.5 	"/>
	<polygon style="fill:#0277BD;" points="24,23.5 15.5,18.5 24,14 32.5,18.5 	"/>
</g>
<g>
	<polygon style="fill:#81D4FA;" points="23.5,7 23.5,13 14.5,18 9.5,15 	"/>
	<polygon style="fill:#81D4FA;" points="23.5,41 23.5,35 14.5,30 9.5,33 	"/>
	<polygon style="fill:#81D4FA;" points="14,19 9,16 9,32 14,29 	"/>
	<polygon style="fill:#81D4FA;" points="24.5,7 24.5,13 33.5,18 38.5,15 	"/>
	<polygon style="fill:#81D4FA;" points="24.5,41 24.5,35 33.5,30 38.5,33 	"/>
	<polygon style="fill:#81D4FA;" points="34,19 39,16 39,32 34,29 	"/>
</g>
</svg>